<?xml version="1.0" encoding="utf-8"?>
<!-- Generator: Adobe Illustrator 22.1.0, SVG Export Plug-In . SVG Version: 6.00 Build 0)  -->
<svg version="1.1" id="图层_1" xmlns="http://www.w3.org/2000/svg" xmlns:xlink="http://www.w3.org/1999/xlink" x="0px" y="0px"
	 viewBox="0 0 96 96" style="enable-background:new 0 0 96 96;" xml:space="preserve">
    <defs>
        <path d="M5.16720725,2.15694972 C4.57981912,2.29147814 4.01663811,2.67469617 3.45795888,3.28222699 L3.40000863,3.34652585 L3.41706088,3.3290245 C2.31983567,4.41733995 1.86268744,5.99225358 2.20824887,7.49585665 C2.84070426,10.2182299 4.91223973,13.4662736 7.70579392,16.2883966 C10.5332577,19.0872915 13.7813017,21.1588206 16.5019346,21.7908739 L16.5941801,21.8110531 C18.0405745,22.1115169 19.5405408,21.676154 20.6032636,20.6488379 L20.6530605,20.5992242 L20.6367826,20.6144113 C21.3182937,20.0075363 21.7360372,19.3963547 21.858708,18.7555609 C22.0403569,17.8066839 21.6727677,16.8312994 20.9172668,16.2234479 L18.8910284,14.5810212 L18.8910284,14.5810212 C17.9729968,13.7661146 16.5931939,13.7836376 15.699312,14.6157694 L15.6477052,14.665379 L15.6228063,14.690554 L14.686639,15.6828975 C14.5546026,15.8149102 14.3280746,15.8409839 14.1527582,15.7314508 C13.3172557,15.2120891 12.1303644,14.1987708 10.9802683,13.0284399 L10.7611357,12.8108428 C9.67601351,11.7221684 8.75502696,10.6301338 8.26897505,9.84821364 C8.15853902,9.67144831 8.18461264,9.44492031 8.33152313,9.29843477 L9.30896885,8.37671655 L9.33414385,8.35181763 L9.37464007,8.30982875 C10.2003067,7.42306041 10.2324768,6.07746659 9.46508279,5.162393 L9.3537796,5.03091264 L8.22723777,3.64204688 C8.07133397,3.44889272 7.91700627,3.25742016 7.77607494,3.08225607 C7.16822347,2.32675513 6.19283903,1.95916594 5.243962,2.14081487 L5.16720725,2.15694972 Z M20.3854606,18.4735287 C20.3347566,18.7383909 20.0964509,19.087045 19.6392388,19.4941853 L19.6055231,19.5261346 C18.8823263,20.255252 17.8371496,20.5586342 16.839641,20.3293845 C14.4293391,19.7694247 11.4077574,17.8423281 8.7664403,15.2277501 C6.15720291,12.5917737 4.23009995,9.57019147 3.66973827,7.15815029 C3.44742729,6.19082408 3.72736923,5.17688065 4.41193762,4.45676796 L4.50533759,4.36028407 C4.91247789,3.90307193 5.26113202,3.66476633 5.52599414,3.61406226 C5.92515246,3.53764911 6.34435194,3.69563113 6.60738014,4.02254988 L8.02359877,5.77349596 L8.33190757,6.14585543 C8.59711542,6.47956509 8.58061124,6.96151558 8.28584937,7.27815087 L8.26649427,7.29801532 L7.28729807,8.22179031 C6.630534,8.87624912 6.51580142,9.8730476 6.99594523,10.641556 C7.58651914,11.5916262 8.67168241,12.862672 9.91964876,14.08906 L10.1558071,14.3268132 C11.2995201,15.4658 12.4692794,16.45116 13.3594158,17.0044806 L13.4145885,17.0377028 C14.1737396,17.4779592 15.1385121,17.3537064 15.7632834,16.7271225 L16.7010407,15.7332689 L16.7309899,15.7045601 C17.0383508,15.4185862 17.5199701,15.4023958 17.8559701,15.669668 L18.0404137,15.8240228 C18.3872561,16.1094041 19.2522673,16.8090681 19.976973,17.3921427 C20.3038918,17.6551709 20.4618738,18.0743704 20.3854606,18.4735287 Z" id="path-1"></path>
        <path d="M22.15,10.5 C22.5642136,10.5 22.9,10.8357864 22.9,11.25 C22.9,11.6296958 22.6178461,11.943491 22.2517706,11.9931534 L22.15,12 L16.9,12 C16.4857864,12 16.15,11.6642136 16.15,11.25 C16.15,10.8703042 16.4321539,10.556509 16.7982294,10.5068466 L16.9,10.5 L22.15,10.5 Z M22.15,6.8626125 C22.5642136,6.8626125 22.9,7.19839894 22.9,7.6126125 C22.9,7.99230827 22.6178461,8.30610346 22.2517706,8.35576588 L22.15,8.3626125 L14.8,8.3626125 C14.3857864,8.3626125 14.05,8.02682606 14.05,7.6126125 C14.05,7.23291673 14.3321539,6.91912154 14.6982294,6.86945912 L14.8,6.8626125 L22.15,6.8626125 Z M22.15,3.225225 C22.5642136,3.225225 22.9,3.56101144 22.9,3.975225 C22.9,4.35492077 22.6178461,4.66871596 22.2517706,4.71837838 L22.15,4.725225 L12.7,4.725225 C12.2857864,4.725225 11.95,4.38943856 11.95,3.975225 C11.95,3.59552923 12.2321539,3.28173404 12.5982294,3.23207162 L12.7,3.225225 L22.15,3.225225 Z" id="path-3"></path>
    </defs>
    <g id="HM/ic/24x24/call-logs" stroke="none" stroke-width="1" fill="none" fill-rule="evenodd">
        <g id="编组">
            <mask id="mask-2" fill="white">
                <use xlink:href="#path-1"></use>
            </mask>
            <g id="形状" fill-rule="nonzero"></g>
            <g mask="url(#mask-2)" fill="#000000" fill-opacity="0.9" id="color/#000000">
                <g>
                    <rect x="0" y="0" width="24" height="24"></rect>
                </g>
            </g>
        </g>
        <mask id="mask-4" fill="white">
            <use xlink:href="#path-3"></use>
        </mask>
        <g id="蒙版"></g>
        <g id="编组" mask="url(#mask-4)" fill="#000000" fill-opacity="0.9">
            <g id="color/#000000">
                <rect x="0" y="0" width="24" height="24"></rect>
            </g>
        </g>
    </g>
</svg>