<?xml version="1.0" encoding="utf-8"?>
<svg version="1.1" id="图层_1" xmlns="http://www.w3.org/2000/svg" xmlns:xlink="http://www.w3.org/1999/xlink" x="0px" y="0px"
	 viewBox="0 0 96 96" style="enable-background:new 0 0 96 96;" xml:space="preserve" fill="#99000000">
<path d="M88.7,14.6c0-1.7-1.3-3-3-3H50.1c-1.7,0-3,1.3-3,3s1.3,3,3,3h35.6C87.4,17.6,88.7,16.3,88.7,14.6z"/>
<path d="M85.7,26.2H58.5c-1.7,0-3,1.3-3,3s1.3,3,3,3h27.2c1.7,0,3-1.3,3-3S87.4,26.2,85.7,26.2z"/>
<path d="M85.7,40.7H66.9c-1.7,0-3,1.3-3,3s1.3,3,3,3h18.8c1.7,0,3-1.3,3-3S87.4,40.7,85.7,40.7z"/>
<path d="M9.4,29.1C7,22.9,9.6,15.3,15.1,11.4l2.2-1.5c0.2-0.1,0.3-0.2,0.5-0.3c4-2.4,9.2-1.1,11.7,2.9l10.2,16.9
	c1.7,2.8,1.6,6.3-0.1,9l-2.3,4.2c-1.1,1.7-0.9,3.4,0.8,5.9c1.3,1.9,2.9,3.8,4.6,5.5c1.7,1.7,3.7,3.5,6.1,5.1c2,1.5,4.2,1.8,5.8,0.8
	l4.2-2.3c2.7-1.8,6.2-1.8,9-0.1l16.9,10.2c4,2.4,5.3,7.6,2.9,11.7c-0.1,0.2-0.2,0.3-0.3,0.5l-1.5,2.2C81.7,87.4,74.1,90,68,87.6
	c-8-3.1-14.2-6-18.6-8.7c-5.9-3.6-11.7-8.3-17.2-14c-5.7-5.6-10.3-11.4-14-17.3C15.5,43.2,12.5,37,9.4,29.1z M45.2,63.9
	c-2.6-1.9-4.9-3.8-6.9-5.8c-1.9-2-3.7-4.1-5.2-6.3c-2.9-4.3-3.5-8.4-1-12.4l2.3-4.2l0.1-0.2c0.5-0.8,0.5-1.8,0-2.6L24.3,15.5
	c-0.7-1.2-2.2-1.6-3.4-0.8l-0.1,0.1l-2.2,1.5c-3.4,2.4-4.9,7.1-3.6,10.6c3,7.7,5.8,13.6,8.3,17.6C26.7,50,31,55.3,36.4,60.7
	c5.3,5.3,10.7,9.7,16.1,13.1c4,2.5,9.9,5.3,17.6,8.3c3.5,1.4,8.2-0.2,10.6-3.6l1.5-2.2l0.1-0.1c0.7-1.2,0.3-2.7-0.8-3.4L64.6,62.5
	c-0.8-0.5-1.8-0.5-2.6,0l-0.2,0.1L57.6,65C53.7,67.4,49,66.7,45.2,63.9z"/>
</svg>
