<?xml version="1.0" encoding="UTF-8"?>
<svg width="24px" height="24px" viewBox="0 0 24 24" version="1.1" xmlns="http://www.w3.org/2000/svg" xmlns:xlink="http://www.w3.org/1999/xlink">
    <title>IC/ic_floatingwindow</title>
    <defs>
        <path d="M12,3.5 L12,5 L9.32305804,5.001658 L8.89267325,5.01171091 C8.03615135,5.04387413 7.64900152,5.14557932 7.25370688,5.3569852 C6.86325774,5.56579969 6.56579969,5.86325774 6.3569852,6.25370688 C6.09290159,6.74750032 6,7.22858421 6,8.6277704 L6.001658,16.676942 L6.01171091,17.1073267 C6.04387413,17.9638487 6.14557932,18.3509985 6.3569852,18.7462931 C6.56579969,19.1367423 6.86325774,19.4342003 7.25370688,19.6430148 C7.69153706,19.8771689 8.11937528,19.9767436 9.18606965,19.9963062 L9.6277704,20 L13.8722296,20 L14.3557064,19.9954923 C15.3918853,19.9740999 15.8142239,19.874088 16.2462931,19.6430148 C16.6367423,19.4342003 16.9342003,19.1367423 17.1430148,18.7462931 C17.3771689,18.3084629 17.4767436,17.8806247 17.4963062,16.8139303 L17.5,16.3722296 L17.5,14 L19,14 L18.9989932,16.5937657 C18.9859758,17.9884263 18.8469417,18.6407938 18.5946788,19.1943859 L18.4657346,19.4536914 C18.1337211,20.0745027 17.6538954,20.5680807 17.0458564,20.9148264 L16.9536914,20.9657346 C16.3018396,21.3143488 15.6552671,21.5 13.8722296,21.5 L9.6277704,21.5 L9.40623426,21.4989932 C8.01157373,21.4859758 7.35920618,21.3469417 6.80561415,21.0946788 L6.54630859,20.9657346 C5.92549731,20.6337211 5.43191931,20.1538954 5.08517358,19.5458564 L5.03426541,19.4536914 C4.68565122,18.8018396 4.5,18.1552671 4.5,16.3722296 L4.5,8.6277704 C4.5,6.97961992 4.65862462,6.30249093 4.957955,5.69465027 L5.03426541,5.54630859 C5.36627892,4.92549731 5.84610464,4.43191931 6.4541436,4.08517358 L6.54630859,4.03426541 C7.16385245,3.70399934 7.77665804,3.51999365 9.35551601,3.5015395 L12,3.5 Z M17.9361148,2 C18.8276335,2 19.1509198,2.09282561 19.4768457,2.2671327 C19.8027716,2.4414398 20.0585602,2.69722837 20.2328673,3.0231543 C20.4071744,3.34908022 20.5,3.67236646 20.5,4.5638852 L20.5,10.4361148 C20.5,11.3276335 20.4071744,11.6509198 20.2328673,11.9768457 C20.0585602,12.3027716 19.8027716,12.5585602 19.4768457,12.7328673 C19.1509198,12.9071744 18.8276335,13 17.9361148,13 L15.5638852,13 C14.6723665,13 14.3490802,12.9071744 14.0231543,12.7328673 C13.6972284,12.5585602 13.4414398,12.3027716 13.2671327,11.9768457 C13.0928256,11.6509198 13,11.3276335 13,10.4361148 L13,4.5638852 C13,3.67236646 13.0928256,3.34908022 13.2671327,3.0231543 C13.4414398,2.69722837 13.6972284,2.4414398 14.0231543,2.2671327 C14.3490802,2.09282561 14.6723665,2 15.5638852,2 L17.9361148,2 Z" id="path-1"></path>
    </defs>
    <g id="IC/ic_floatingwindow" stroke="none" stroke-width="1" fill="none" fill-rule="evenodd">
        <g id="symbol/frame/symbol_grid24"></g>
        <mask id="mask-2" fill="white">
            <use xlink:href="#path-1"></use>
        </mask>
        <g id="形状结合" fill-rule="nonzero"></g>
        <g id="编组" mask="url(#mask-2)" fill="#000000" fill-opacity="0.9">
            <g id="color/#000000">
                <rect x="0" y="0" width="24" height="24"></rect>
            </g>
        </g>
    </g>
</svg>