<?xml version="1.0" encoding="utf-8"?>
<svg version="1.1" id="图层_1" xmlns="http://www.w3.org/2000/svg" xmlns:xlink="http://www.w3.org/1999/xlink" x="0px" y="0px"
	 viewBox="0 0 96 96" style="enable-background:new 0 0 96 96;" xml:space="preserve">
<path d="M78.2,10.6c-1.5,3.7-5.6,5.4-9.3,3.9C65.3,13,63.5,8.8,65,5.2c1.5-3.7,5.6-5.4,9.3-3.9C77.9,2.8,79.6,7,78.2,10.6z
	 M5.3,68.8L5.3,68.8l25-3.4c0,0,0.1,0,0.1-0.1L38.2,54c0.6,1.6,1.6,3.1,3.2,4.4c0.7,0.6,3,2.2,5.7,4.2l-8.5,10.6
	c-0.7,1-1.8,1.8-3.2,2.2c-0.6,0.2-1.2,0.2-1.8,0.2l-28.1-1l0,0c-0.2,0-0.4,0-0.5-0.1c-1.5-0.4-2.5-1.9-2.1-3.4
	C3.2,69.8,4.1,68.9,5.3,68.8z M91.7,45.6C91.6,45.7,91.6,45.7,91.7,45.6l-18.4,4.3l0,0c-0.1,0-0.2,0-0.3,0c-1.7,0.1-3.3-0.8-4.1-2.3
	l0,0l-2-4.5c2.2-3.3,4.5-6.9,6-9.8l2.3,8.3l15.9-0.3c0.3,0,0.7,0,1,0.2c1.1,0.5,1.6,1.7,1.2,2.8C92.8,45,92.3,45.5,91.7,45.6z
	 M32.4,49.8c-0.1,0.3-0.3,0.6-0.6,0.9c-0.9,0.8-2.2,0.7-3-0.1c-0.5-0.5-0.6-1.2-0.5-1.8l0,0l5.2-21l0,0c0-0.2,0.1-0.3,0.1-0.5
	c0.4-1.1,1.2-2,2.2-2.4v-0.1l21.2-8l0,0c2.2-0.7,4.6-0.7,6.9,0.2c5.1,2.1,7.5,7.9,5.5,13.1c0,0.1-0.3,0.7-0.4,0.9
	c-2.8,6.2-11.5,18-11.5,18L72,61l0.1,0.1c0.7,0.6,1.3,1.4,1.6,2.3v0.1l0.1,0.4c0,0.1,0,0.1,0,0.2L81,91.8l0,0c0,0.1,0,0.2,0,0.4
	c0.1,1.6-1.1,2.9-2.6,3.1c-1.2,0.1-2.3-0.6-2.8-1.7l0,0c-1.8-3.8-11.7-24.4-11.7-24.4S46.2,56.8,44.1,55c-0.3-0.2-0.5-0.4-0.7-0.7
	c-1.9-2-2.5-5-1.4-7.7c0.1-0.2,0.1-0.3,0.2-0.5c0-0.1,0-0.1,0-0.1l4.4-11.6c0.9-0.6,1.7-1.1,2.3-1.4c1.8-0.7,5.4-2.9,5-4
	c-0.5-1.1-11.4,3-12.9,3.6l-0.3,0.1L32.4,49.8L32.4,49.8z"/>
</svg>
