<?xml version="1.0" encoding="utf-8"?>
<svg version="1.1" id="图层_1" xmlns="http://www.w3.org/2000/svg" xmlns:xlink="http://www.w3.org/1999/xlink" x="0px" y="0px"
	 viewBox="0 0 96 96" style="enable-background:new 0 0 96 96;" xml:space="preserve">
<g>
	<path d="M26.7,49.7c-0.4,1-0.8,2.1-1.1,3.2c-0.4,1.4,0.2,2.9,1.5,3.5c0.4,0.2,0.9,0.3,1.4,0.3c0.9,0,1.8-0.4,2.4-1.1
		c0.6-0.7,1.1-1.4,1.7-2c2.8-3,6-5.6,9.4-7.6c5.7-3.4,12-4.8,22.5-5.2v8.7c0,1.2,0.7,2.3,1.8,2.7c1.1,0.5,2.3,0.3,3.2-0.5L90.6,33
		c0.6-0.6,1-1.4,1-2.2s-0.4-1.7-1-2.2l-21.3-19c-0.9-0.8-2.1-1-3.2-0.5s-1.8,1.6-1.8,2.7v9.7C47.5,23.1,32.7,34.2,26.7,49.7z
		 M64.9,27.5l2.7-0.3c1.5-0.1,2.7-1.4,2.7-3v-5.8l13.8,12.2L70.3,43v-5.1c0-0.8-0.3-1.6-0.9-2.2c-0.6-0.5-1.3-0.8-2.1-0.8h-0.1
		L64.1,35c-11.4,0.4-18.7,2.2-25.2,6C45.4,33.4,54.7,28.5,64.9,27.5z"/>
	<path d="M89,45c-1.7,0-3,1.3-3,3v23c0,3.9-3.1,7-7,7H17c-3.9,0-7-3.1-7-7V25c0-3.9,3.1-7,7-7h35.3c1.7,0,3-1.3,3-3s-1.3-3-3-3H17
		C9.8,12,4,17.8,4,25v46c0,7.2,5.8,13,13,13h62c7.2,0,13-5.8,13-13V48C92,46.4,90.7,45,89,45z"/>
</g>
</svg>
