<?xml version="1.0" encoding="UTF-8"?>
<svg width="24px" height="24px" viewBox="0 0 24 24" version="1.1" xmlns="http://www.w3.org/2000/svg" xmlns:xlink="http://www.w3.org/1999/xlink">
    <title>HM/ic/24x24/more1.5</title>
    <g id="HM/ic/24x24/more1.5" stroke="none" stroke-width="1" fill="none" fill-rule="evenodd">
        <path d="M14.97495,2.5 C18.6252,2.5 21.57495,5.45 21.57495,9.075 C21.57495,12.7 18.6252,15.65 15.0002,15.65 C13.72495,15.65 12.54995,15.3 11.54995,14.675 L11.54995,14.675 L10.94995,15.275 L11.04995,16.125 C11.04995,16.5 10.89995,16.825 10.64995,17.05 L10.64995,17.05 L9.94995,17.75 C9.6762,18.02375 9.3687,18.15 9.04995,18.15 L9.04995,18.15 L8.97495,18.15 L8.19995,18.05 L7.59995,18.65 L7.67495,19.225 C7.69995,19.325 7.69995,19.4 7.69995,19.5 C7.69995,19.8 7.59995,20.05 7.42495,20.275 L7.42495,20.275 L6.54995,21.175 C6.29995,21.45 6.02495,21.55 5.49995,21.55 L5.49995,21.55 L3.77495,21.55 C2.99995,21.55 2.49995,20.9 2.49995,20.325 L2.49995,20.325 L2.49995,17.9 L8.87495,11.5 C8.57495,10.75 8.39995,9.925 8.39995,9.075 C8.39995,5.45 11.34995,2.5 14.97495,2.5 Z M14.97495,4 C12.17495,4 9.89995,6.275 9.89995,9.075 C9.89995,10.075 10.19995,11 10.69995,11.8 L10.69995,11.8 L3.97495,18.5 L3.97495,20.05 L5.54995,20.05 L6.17495,19.425 C6.17495,19.425 6.09995,19 6.07495,18.725 C6.02495,18.35 6.14995,17.975 6.39995,17.725 C6.54995,17.575 7.14995,16.95 7.24995,16.875 C7.39995,16.7 7.79995,16.5 8.19995,16.55 C8.54995,16.6 8.94995,16.65 8.94995,16.65 L8.94995,16.65 L9.54995,16.05 C9.54995,16.05 9.47495,15.55 9.42495,15.325 C9.37495,14.925 9.54995,14.525 9.79995,14.3 C9.89995,14.2 11.42495,12.7 11.42495,12.7 C12.32495,13.6 13.57495,14.15 14.97495,14.15 C17.79995,14.15 20.04995,11.875 20.04995,9.075 C20.04995,6.275 17.77495,4 14.97495,4 Z M15.07505,7.374975 C16.0138,7.374975 16.77505,8.135975 16.77505,9.074975 C16.77505,10.013975 16.0138,10.774975 15.07505,10.774975 C14.13605,10.774975 13.37505,10.013975 13.37505,9.074975 C13.37505,8.135975 14.13605,7.374975 15.07505,7.374975 Z" id="Combined-Shape" fill="#99000000"></path>
    </g>
</svg>