<?xml version="1.0" encoding="UTF-8"?>
<svg width="24px" height="24px" viewBox="0 0 24 24" version="1.1" xmlns="http://www.w3.org/2000/svg" xmlns:xlink="http://www.w3.org/1999/xlink">
    <title>HM/ic/24x24/Multi-device vector</title>
    <g id="HM/ic/24x24/Multi-device-vector" stroke="none" stroke-width="1" fill="none" fill-rule="evenodd">
        <path d="M19.6588576,7.3125 C20.4946564,7.3125 20.7977373,7.39952401 21.1032928,7.56293691 C21.4088484,7.72634981 21.6486502,7.9661516 21.8120631,8.27170715 L21.8372288,8.32001023 C21.9843953,8.61064163 22.0625,8.92433297 22.0625,9.71614237 L22.0625,11.84375 C22.235089,11.84375 22.375,11.983661 22.375,12.15625 L22.375,13.40625 C22.375,13.578839 22.235089,13.71875 22.0625,13.71875 L22.0617784,19.4114769 C22.053128,20.1515665 21.9668753,20.4388192 21.8120631,20.7282928 C21.6486502,21.0338484 21.4088484,21.2736502 21.1032928,21.4370631 L21.0549898,21.4622288 C20.7643584,21.6093953 20.450667,21.6875 19.6588576,21.6875 L16.2135231,21.6867784 C15.4734335,21.678128 15.1861808,21.5918753 14.8967072,21.4370631 C14.5911516,21.2736502 14.3513498,21.0338484 14.1879369,20.7282928 L14.1627712,20.6799898 C14.0156047,20.3893584 13.9375,20.075667 13.9375,19.2838576 L13.9375,9.71614237 C13.9375,8.88034356 14.024524,8.57726271 14.1879369,8.27170715 C14.3513498,7.9661516 14.5911516,7.72634981 14.8967072,7.56293691 L14.9450102,7.53777123 C15.2356416,7.39060465 15.549333,7.3125 16.3411424,7.3125 L19.6588576,7.3125 Z M16.3411424,8.8125 C15.9303677,8.8125 15.7697305,8.82642519 15.687621,8.8492988 L15.6380813,8.86805408 L15.6041054,8.88565671 C15.5599526,8.90926991 15.5342699,8.9349526 15.5106567,8.97910544 C15.494721,9.00890257 15.4877579,9.02331282 15.4822764,9.04312475 L15.474229,9.07949249 C15.4554896,9.17653291 15.4424763,9.33186667 15.4386591,9.56602452 L15.4375,19.2838576 C15.4375,19.6946323 15.4514252,19.8552695 15.4742988,19.937379 L15.4930541,19.9869187 L15.5106567,20.0208946 C15.5342699,20.0650474 15.5599526,20.0907301 15.6041054,20.1143433 L15.6688856,20.1430773 C15.7282488,20.1633475 15.8095538,20.1749073 15.9764945,20.1813308 L16.3411424,20.1875 L19.6588576,20.1875 C20.0696323,20.1875 20.2302695,20.1735748 20.312379,20.1507012 L20.3619187,20.1319459 L20.3958946,20.1143433 C20.4400474,20.0907301 20.4657301,20.0650474 20.4893433,20.0208946 L20.5180773,19.9561144 C20.5383475,19.8967512 20.5499073,19.8154462 20.5563308,19.6485055 L20.5625,19.2838576 L20.5625,9.71614237 C20.5625,9.30536767 20.5485748,9.14473053 20.5257012,9.06262098 L20.5069459,9.01308133 L20.4893433,8.97910544 C20.4657301,8.9349526 20.4400474,8.90926991 20.3958946,8.88565671 C20.3660974,8.86972103 20.3516872,8.8627579 20.3318752,8.8572764 L20.2955075,8.84922901 C20.1984671,8.83048964 20.0431333,8.8174763 19.8089755,8.81365905 L16.3411424,8.8125 Z M17.2291667,2.46875 C18.3792596,2.46875 19.321062,3.36054828 19.4007837,4.49035493 L19.40625,4.64583333 L19.40575,5.81175 L17.90575,5.81175 L17.90625,4.64583333 C17.90625,4.30588533 17.6557206,4.0244516 17.3292211,3.97609132 L17.2291667,3.96875 L3.77083333,3.96875 C3.43088533,3.96875 3.1494516,4.21927937 3.10109132,4.54577892 L3.09375,4.64583333 L3.09375,13.3541667 C3.09375,13.6941147 3.34427937,13.9755484 3.67077892,14.0239087 L3.77083333,14.03125 L12.43675,14.03075 L12.43675,15.53075 L3.77083333,15.53125 C2.62074036,15.53125 1.67893804,14.6394517 1.59921628,13.5096451 L1.59375,13.3541667 L1.59375,4.64583333 C1.59375,3.49574036 2.48554828,2.55393804 3.61535493,2.47421628 L3.77083333,2.46875 L17.2291667,2.46875 Z" id="形状结合" fill="#99000000"></path>
    </g>
</svg>