<?xml version="1.0" encoding="UTF-8"?>
<svg width="24px" height="24px" viewBox="0 0 24 24" version="1.1" xmlns="http://www.w3.org/2000/svg" xmlns:xlink="http://www.w3.org/1999/xlink">
    <title>HM/ic/24x24/ic_nearby</title>
    <g id="HM/ic/24x24/ic_nearby" stroke="none" stroke-width="1" fill="none" fill-rule="evenodd" fill-opacity="0.9">
        <path d="M12,1 C14.9437925,1 17.7055736,2.16266222 19.752529,4.19626361 C20.0202839,4.46227172 20.0452692,4.88001852 19.8270348,5.17433848 L19.7542674,5.25865649 L16.5608852,8.45349449 C16.5258891,8.52237714 16.4795684,8.58698148 16.4219251,8.64453927 C16.3642819,8.70209706 16.2996089,8.74832189 16.2306744,8.78321581 L13.8275423,11.1863159 C13.9383848,11.4348944 14,11.7102517 14,12 C14,13.1045695 13.1045695,14 12,14 C10.8954305,14 10,13.1045695 10,12 C10,10.8954305 10.8954305,10 12,10 C12.2640695,10 12.5161858,10.0511779 12.7469714,10.1441562 L14.7579106,8.13187506 C13.9642117,7.56455608 13.0076029,7.25 12,7.25 C9.37664744,7.25 7.25,9.37664744 7.25,12 C7.25,14.6233526 9.37664744,16.75 12,16.75 C14.6233526,16.75 16.75,14.6233526 16.75,12 C16.75,11.733302 16.7280951,11.4696976 16.6848687,11.2108711 C16.6166361,10.8023161 16.892522,10.4158034 17.301077,10.3475709 C17.709632,10.2793383 18.0961447,10.5552242 18.1643772,10.9637792 C18.2212276,11.3041811 18.25,11.6504302 18.25,12 C18.25,15.4517797 15.4517797,18.25 12,18.25 C8.54822031,18.25 5.75,15.4517797 5.75,12 C5.75,8.54822031 8.54822031,5.75 12,5.75 C13.4102831,5.75 14.7474594,6.21997228 15.8290828,7.05978622 L18.139,4.751 L17.9728918,4.61183304 C16.3857713,3.32623459 14.4198236,2.57734388 12.3308269,2.5056688 L12,2.5 C6.75329488,2.5 2.5,6.75329488 2.5,12 C2.5,17.2467051 6.75329488,21.5 12,21.5 C17.2467051,21.5 21.5,17.2467051 21.5,12 C21.5,10.438282 21.1233622,8.9324315 20.4124178,7.58178142 C20.2194832,7.21524478 20.3602155,6.76170371 20.7267521,6.56876909 C21.0932887,6.37583447 21.5468298,6.51656672 21.7397644,6.88310336 C22.5634355,8.44791126 23,10.1933572 23,12 C23,18.0751322 18.0751322,23 12,23 C5.92486775,23 1,18.0751322 1,12 C1,5.92486775 5.92486775,1 12,1 Z" id="形状结合" fill="#000000"></path>
    </g>
</svg>