<?xml version="1.0" encoding="UTF-8"?>
<svg width="26px" height="31px" viewBox="0 0 26 31" version="1.1" xmlns="http://www.w3.org/2000/svg" xmlns:xlink="http://www.w3.org/1999/xlink">
    <title>Public/ic_public_gps_filled</title>
    <defs>
        <path d="M16,1.18725822 C22.8072676,1.18725822 28.3333333,6.60886185 28.3333333,13.3063947 C28.3333333,15.9147109 27.5432665,18.4633504 26.0768381,21.0392072 C24.9447641,23.0277533 23.529691,24.8720637 21.5050001,27.1592659 C20.7404194,28.0229784 19.7292034,29.0018403 18.4691923,30.0999774 L18.4691923,30.0999774 L18.1024173,30.41698 C16.9388306,31.4145605 15.2279693,31.4455491 14.0124907,30.4821172 L14.0124907,30.4821172 L13.9176716,30.4030831 L13.4764798,30.0183114 C12.317265,29.0016899 11.472187,28.213354 10.9263938,27.6359597 L10.9263938,27.6359597 L10.8011421,27.5014263 L10.4919214,27.1563861 C6.05460508,22.1652966 3.66666667,17.9330827 3.66666667,13.3063947 C3.66666667,6.6578994 8.94388117,1.29539073 15.6445981,1.18877946 L15.6445981,1.18877946 L15.8399167,1.18725822 Z M16,10.3333333 C14.3431458,10.3333333 13,11.6764791 13,13.3333333 C13,14.9901876 14.3431458,16.3333333 16,16.3333333 C17.6568542,16.3333333 19,14.9901876 19,13.3333333 C19,11.6764791 17.6568542,10.3333333 16,10.3333333 Z" id="path-1"></path>
    </defs>
    <g id="页面-3" stroke="none" stroke-width="1" fill="none" fill-rule="evenodd">
        <g id="Phone_精确位置备份" transform="translate(-209.000000, -634.000000)">
            <g id="Permissiondialog" transform="translate(12.000000, 412.000000)">
                <g id="编组-2" transform="translate(0.000000, 136.000000)">
                    <g id="Public/ic_public_gps_filled" transform="translate(194.000000, 85.000000)">
                        <mask id="mask-2" fill="white">
                            <use xlink:href="#path-1"></use>
                        </mask>
                        <g id="路径" fill-rule="nonzero"></g>
                        <g id="编组" mask="url(#mask-2)" fill="#000000" fill-opacity="0.9">
                            <g id="Symbol/color-light/colorPrimary">
<!--                                <rect id="color/#000000" x="0" y="0" width="32" height="32"></rect>-->
                            </g>
                        </g>
                    </g>
                </g>
            </g>
        </g>
    </g>
</svg>