<?xml version="1.0" encoding="UTF-8"?>
<svg width="24px" height="24px" viewBox="0 0 22 18" version="1.1" xmlns="http://www.w3.org/2000/svg" xmlns:xlink="http://www.w3.org/1999/xlink">
    <title>HM/ic/24x24/ssensor</title>
    <g id="Phone" stroke="none" stroke-width="1" fill="none" fill-rule="evenodd">
        <g id="HM/ic/24x24/h1.5" transform="translate(-1.000000, -3.000000)" fill="#99000000" fill-rule="nonzero">
            <path d="M6.88520113,3.25665375 C8.20110847,3.2441055 9.45423321,3.70191516 10.4382279,4.52818986 L10.6448894,4.71085136 L10.6448894,4.71085136 L10.8307509,4.8921425 L12.976,7.22140244 L11.9770711,8.2105109 L9.75814072,5.94071648 C9.06143139,5.22803664 8.12676193,4.80899735 7.13043906,4.7610321 L6.89923552,4.7565881 C4.73297495,4.77685708 2.9442573,6.6249968 3.00133068,8.77403723 C3.01513617,9.28969008 3.12229988,9.78243475 3.31369779,10.2240841 C3.55588591,10.7815376 3.99804021,11.4975524 4.5646206,12.2655031 L8.48955036,12.2661597 L9.06590376,10.5234792 C9.28460194,9.86221647 10.1997769,9.80984134 10.4924878,10.4418363 L11.7838314,13.2299896 L13.5515924,8.29791662 C13.78546,7.64542344 14.6956603,7.6118272 14.9769941,8.24530387 L16.516272,11.7112816 L19.8146263,11.7107293 C20.1891539,11.168373 20.4721867,10.6724268 20.6751555,10.2113872 C20.9634789,9.55619284 21.0621436,8.84144072 20.962039,8.11014604 C20.7254198,6.38058715 19.2884683,4.98260785 17.5331805,4.78304299 C16.4453685,4.65947728 15.2702156,5.04996218 14.401689,5.81822352 L14.2321887,5.97687243 L14.155,6.05240244 L13.08,5.00540244 L13.176616,4.9111491 C14.3686991,3.73042013 16.0743524,3.107687 17.7024783,3.29262753 C20.1396687,3.5697203 22.1186199,5.49780703 22.4481955,7.90682646 C22.5860683,8.91402884 22.4474129,9.90814878 22.0480988,10.8155617 C21.963373,11.0080146 21.867777,11.2043805 21.7605257,11.4054465 L21.5908092,11.710669 L21.5552268,11.7717417 C21.4057908,12.0263345 21.2380086,12.2887519 21.0504191,12.5604591 C21.0279954,12.5929382 21.0052615,12.6255886 20.9822414,12.6583747 C20.943106,12.7141083 20.9034812,12.7697659 20.863031,12.8258208 L20.7916816,12.9239381 L20.7916816,12.9239381 L20.7788785,12.9413885 C20.7124801,13.0317681 20.6439566,13.1231816 20.573259,13.215678 C20.5653999,13.2259611 20.5571383,13.2367469 20.5488471,13.2475476 C19.8353467,14.1769973 18.902944,15.2157708 17.7024783,16.4131641 C16.3656625,17.7465587 14.7925137,19.1395141 12.9830318,20.5920303 C12.4519735,21.018324 11.7129601,21.0518761 11.1489587,20.6909917 L11.0220856,20.6007081 L9.65556885,19.5121388 C9.4833887,19.372194 9.3561404,19.2664956 9.27382393,19.1950436 L9.22982587,19.156282 C8.42735825,18.436006 7.65565362,17.7313751 6.92454102,17.0507199 L6.2441969,16.4131641 C5.51617255,15.7262006 4.825114,14.9817787 4.21136312,14.243737 L3.85271226,13.8021883 C3.63212339,13.5240162 3.42383242,13.2486023 3.23004481,12.9794365 C3.2090598,12.9502912 3.18782453,12.9206286 3.16676924,12.8910469 C3.13931405,12.8524721 3.11238967,12.8143555 3.08577271,12.7763846 C2.97266522,12.6150295 2.86508583,12.4562675 2.76355384,12.3009163 C2.75616605,12.2896136 2.74842237,12.2777321 2.7407144,12.2658709 C2.39391679,11.7321258 2.11983051,11.2404862 1.93792765,10.8217935 C1.66957051,10.2025634 1.52079316,9.52106177 1.50186798,8.81418212 C1.42255575,5.82776195 3.87928317,3.28477913 6.88520113,3.25665375 Z M14.3510337,10.6216115 L12.597787,15.5131894 C12.3659036,16.1601468 11.4662288,16.2004707 11.1773975,15.576852 L9.91471062,12.8505717 L9.77410978,13.2756969 C9.67006241,13.5902978 9.37603547,13.8027451 9.04467524,13.8027451 L5.8084156,13.8018219 C6.19037386,14.2352275 6.5949595,14.6633794 7.00971748,15.0686972 L7.41179063,15.45234 L8.49212243,16.4581803 C8.67772418,16.6292924 8.86601563,16.8020655 9.0568715,16.976387 L10.2317773,18.0399965 C10.3152935,18.1149586 10.5226799,18.2857329 10.8442125,18.5440027 L11.9506809,19.4226967 C11.9781034,19.4443132 12.0168168,19.4441419 12.044047,19.4222836 C13.8134328,18.0019534 15.3466495,16.6443562 16.643178,15.3511458 C17.4119101,14.5843812 18.0650527,13.887249 18.6144238,13.2478559 L16.016827,13.247867 C15.7131288,13.247867 15.4379315,13.0689692 15.3146653,12.7914119 L14.3510337,10.6216115 Z" id="形状结合"></path>
        </g>
    </g>
</svg>