<?xml version="1.0" encoding="UTF-8"?>
<svg width="24px" height="24px" viewBox="0 0 24 24" version="1.1" xmlns="http://www.w3.org/2000/svg" xmlns:xlink="http://www.w3.org/1999/xlink">
    <title>HM/ic/24x24/s0324ok</title>
    <g id="HM/ic/24x24/s0324ok" stroke="none" stroke-width="1" fill="none" fill-rule="evenodd" fill-opacity="0.9">
        <path d="M15.9245185,0.25 C17.5105444,0.25 18.7969136,1.53654694 18.7969136,3.12324444 C18.7969136,4.65316228 17.6006976,5.90459674 16.0932487,5.99203349 L15.99657,5.99426609 C16.3470757,6.47249865 16.5126301,7.01636525 16.5006989,7.62452853 L17.835,9.603 L19.1881247,9.60398148 C19.8646738,9.60398148 20.4683305,9.98844537 20.7711336,10.6003637 L20.8355669,10.7455418 L20.8886964,10.8983664 L20.9290487,11.0782696 L20.9420904,11.1725015 L20.9513454,11.2961327 L20.9532432,11.3688611 C20.9532432,12.1164745 20.485728,12.7754325 19.7659,13.0395697 L19.6186339,13.0870422 L19.4437664,13.1229535 L19.3592128,13.1332867 L19.2546465,13.1413972 L16.8742216,13.2433024 L16.8133302,13.2443463 C16.2899688,13.2443463 15.7899351,13.0416735 15.3966968,12.6615562 L15.2696873,12.5283131 L15.1603839,12.3882868 L14.7348392,11.7861435 L14.29,12.585 L16.7223217,14.9246876 C16.7670742,14.9677475 16.8061292,15.0160278 16.8387379,15.0683273 L16.8827226,15.149641 L16.9164761,15.2360828 L18.9440586,21.5578042 C19.1911388,22.329138 18.8839454,23.1619137 18.1956493,23.6013469 L18.06217,23.6790201 L17.9929516,23.7123281 L17.8768982,23.7610363 C17.1412384,24.0370983 16.3194614,23.7986624 15.8332523,23.1734194 L15.7406097,23.0432512 L15.7025051,22.9797038 L15.6426141,22.8673645 L13.287,18.004 L12.4785608,17.3624302 L11.2508392,16.3971435 L8.51339809,18.772026 C8.10306125,19.1162575 7.57585313,19.2817412 7.01892964,19.2328324 L6.83230746,19.2085401 L6.65628508,19.1673024 L2.82698351,18.0727713 C1.90332987,17.8022274 1.37342926,16.8349198 1.64495811,15.9112942 C1.86604436,15.1585884 2.55400503,14.6515606 3.35779829,14.6510503 L3.51999736,14.6577791 L3.68106742,14.6818428 L6.514,15.252 L7.59179919,13.9843819 C7.74557417,14.4933851 8.0114086,14.964341 8.37877532,15.3738832 L7.37091451,16.5600992 C7.21953654,16.7381567 6.99555136,16.8337734 6.76631401,16.8235902 L6.65156949,16.8095737 L3.42805704,16.1597111 L3.35370753,16.1478799 C3.23249092,16.1379529 3.11900552,16.2153867 3.0841099,16.3341915 C3.05283094,16.4405892 3.09845942,16.5511311 3.18637451,16.606074 L3.24392099,16.6318899 L7.02898725,17.7149155 L7.12502429,17.7379568 C7.24582133,17.7585651 7.36938413,17.7358901 7.46958038,17.6794186 L7.53993801,17.6308764 L10.0408392,15.4591435 L9.58842627,15.1272156 C8.82541394,14.5635741 8.4213468,13.7615291 8.43724661,12.8741035 L8.44710401,12.6826898 C8.4865744,12.2171432 8.61990092,11.8016113 8.85357409,11.3626351 L8.97880294,11.1408532 L9.0022946,11.1011549 L9.869,9.423 L9.803,9.434 L7.99289438,11.6884507 C7.75487419,11.9847414 7.43365865,12.1972108 7.0654969,12.3030366 L6.90494472,12.3417948 L6.73927813,12.3670954 L6.67516374,12.3721074 L6.55783025,12.3762241 C6.2775803,12.3762241 5.99785412,12.3121925 5.7520196,12.1915195 L5.60885283,12.1123778 L5.53690192,12.0672082 C4.82724545,11.5931224 4.55475188,10.6916012 4.87234403,9.89491866 L4.93884496,9.74689922 L4.97410238,9.68249073 L5.03972026,9.57544815 L7.13843238,6.4304198 C7.51380181,5.91652787 8.01970713,5.69332617 9.41085943,5.34284765 L10.2532106,5.13856067 L10.8992,4.99083604 L11.5636839,4.84588248 L12.2368723,4.70737302 L12.4940485,4.66098612 L12.7210738,4.63548702 C12.8445779,4.62372301 12.9672061,4.6150542 13.0816373,4.61028117 L13.246221,4.60614353 L13.3574584,4.60709436 L13.4667812,4.61428898 C13.2023167,4.1795817 13.05,3.6691801 13.05,3.12324444 C13.05,1.53616433 14.336964,0.25 15.9245185,0.25 Z M13.3333701,6.10685861 L13.1365766,6.1092792 L12.9346567,6.12223866 L12.7265745,6.14315657 L12.3267597,6.21890757 L11.6178558,6.36851113 L11.3574044,6.42559527 L10.6001127,6.59789196 L9.81583558,6.78774742 L9.30258509,6.92213642 L9.00812047,7.00695767 C8.70382107,7.09925518 8.53193548,7.16920895 8.44064105,7.22698756 L8.409314,7.24869142 L8.36799648,7.28899509 L6.30011019,10.3883948 L6.26906715,10.4396879 C6.21333756,10.5509156 6.23401982,10.6829243 6.30255593,10.7642716 L6.34919159,10.8064291 L6.39942341,10.8376239 C6.42275237,10.8520726 6.45790629,10.864412 6.49096004,10.8711167 L6.53722488,10.8765072 L6.59530664,10.8741626 C6.66260351,10.8667391 6.72543957,10.8397396 6.77659601,10.7968975 L6.82359187,10.7489127 L8.81321814,8.27324483 C8.90499456,8.15904855 9.02765935,8.07487215 9.16547648,8.02996892 L9.27143452,8.00379979 L11.0848666,7.6937751 C11.6584627,7.59571301 12.1064364,8.15418457 11.9199617,8.67961543 L11.8803649,8.77185519 L10.8344444,10.8321029 L10.3641663,11.7363785 L10.1755958,12.0715365 C10.0333594,12.3399005 9.9624651,12.5649817 9.9417418,12.8094095 C9.90861754,13.2001047 10.0417455,13.5396248 10.3481694,13.8145153 L10.4712154,13.9145434 L10.7801037,14.1382836 L11.2531924,14.4978323 L12.5003047,15.4694808 L14.3533908,16.9348871 C14.4123018,16.9816104 14.4636819,17.0367904 14.505956,17.0984617 L14.5623408,17.1955915 L16.9939786,22.2161395 L17.0105158,22.245269 C17.0688345,22.3348984 17.1707133,22.3825576 17.2623283,22.3782706 L17.3282741,22.3651596 L17.3827387,22.3419456 C17.480447,22.2902623 17.535778,22.1860857 17.5280279,22.0794972 L17.5156425,22.0156553 L15.546,15.874 L12.8361983,13.2671306 C12.6459346,13.0840628 12.5697629,12.8193495 12.6224955,12.5709058 L12.6530304,12.4657116 L12.6996087,12.3642223 L13.5179134,10.8859195 L13.9429849,10.1330734 L14.3602004,9.41807004 C15.2196408,7.9196048 15.2052734,7.11897571 14.4108374,6.51083074 L14.2163996,6.37290999 C14.012686,6.23587076 13.7630888,6.14790187 13.4957079,6.11786095 L13.3333701,6.10685861 Z M15.986,9.544 L15.9329693,9.65715389 L15.8028738,9.9092693 L15.6594497,10.1676942 L15.554,10.346 L16.3613848,11.4905423 L16.4204928,11.5670542 C16.4998521,11.6570282 16.607369,11.7165107 16.716749,11.7367776 L16.7987225,11.7444886 L19.1980507,11.6424205 L19.1827173,11.6472489 L19.2536733,11.632717 C19.3473262,11.6064244 19.4188592,11.5320187 19.4439115,11.4522845 L19.453605,11.3921533 L19.453812,11.3547313 L19.4568392,11.362 L19.4417621,11.2912844 C19.4149709,11.2031013 19.3437361,11.1361373 19.2562991,11.112879 L19.1881247,11.1039815 L17.4372284,11.1039815 C17.2235729,11.1039815 17.0218838,11.0129966 16.8808103,10.8568866 L16.8155501,10.7735243 L15.986,9.544 Z M15.9245185,1.75 C15.1651825,1.75 14.55,2.36480024 14.55,3.12324444 C14.55,3.88168867 15.1653949,4.49691358 15.9245185,4.49691358 C16.6818586,4.49691358 17.2969136,3.8815611 17.2969136,3.12324444 C17.2969136,2.36492767 16.6820709,1.75 15.9245185,1.75 Z" id="形状" fill="#99000000"></path>
    </g>
</svg>