<?xml version="1.0" encoding="UTF-8"?>
<svg width="336px" height="172px" viewBox="0 0 336 172" version="1.1" xmlns="http://www.w3.org/2000/svg" xmlns:xlink="http://www.w3.org/1999/xlink">
    <title>img_location_map</title>
    <defs>
        <rect id="path-1" x="0" y="0" width="336" height="172"></rect>
    </defs>
    <g id="img_location_map" stroke="none" stroke-width="1" fill="none" fill-rule="evenodd">
        <mask id="mask-2" fill="white">
            <use xlink:href="#path-1"></use>
        </mask>
        <g id="蒙版"></g>
        <g mask="url(#mask-2)">
            <g transform="translate(-7.000000, -6.000000)">
                <g id="编组" stroke-width="1" fill="none" fill-rule="evenodd">
                    <polygon id="路径" fill="#596080" fill-rule="nonzero" opacity="0.1" points="0 178.5 346 178.5 348 0.5 2 0.5"></polygon>
                    <g opacity="0.05" transform="translate(44.000000, 6.000000)" fill="#596080" fill-rule="nonzero">
                        <polygon id="路径" points="21.4 0 0.1 13.4 27.1 56.6 88.2 18.5 76.6 0"></polygon>
                        <path d="M164.7,58.5 C172.1,63.1 184.2,60.7 201,51.2 L288,0 L125.6,0 C133.2,10.6 138.1,18.3 140.3,23.2 C149.8,44 157.4,54 164.7,58.5 Z" id="路径"></path>
                        <path d="M266.5,47.8 C241.8,53.2 218.4,66.2 196.1,86.5 C178.1,103 164.3,122.2 156.5,145.6 C154.7,151.1 152.7,160.2 151,172 L185,172 C184.5,167.7 186.8,158.1 193.1,144 C193.1,144 193.1,144 193.1,144 L193.1,144 C193.1,144 193.1,144 193.1,144 C199.6,146.9 205.7,151.4 211.4,157.3 C216.8,163 223,172 223,172 C223,172 224,172 226,172 L275,172 C275.8,170.1 271.9,161.5 263,144 C258.3,134.6 246.1,120.6 240,113.2 C236.7,109.2 231.9,104.7 225.7,99.7 C239,88.3 256.4,76.3 277.9,64 L266.5,47.8 Z M207.6,119.3 C203.7,124.6 199,132.6 193.5,143.2 L193.6,142.9 C195.1,139.5 196.9,135.9 198.8,131.9 C203.8,121.7 212.6,111 225.3,100 L225.6,99.7 C217.7,107.3 211.6,113.8 207.6,119.3 Z" id="形状"></path>
                    </g>
                    <g id="SVGID_1_-link" transform="translate(100.000000, 68.000000)" fill="#E9FCE6">
                        <path d="M28.1,66.4 C30.1,65.9 33.1,62.9 37.3,57.5 C40.2,52.6 41.6,48.8 41.6,46.2 C41.6,43.6 37.1,37.2 28.1,27.1 L9.3,37.5 L0.5,41.6 L12.5,61.4 C21.6,65.1 26.8,66.7 28.1,66.4 Z M243,83 C243,77 242.6,63.5 243,37 L221.9,3.5 L198.4,18.3 C228.3,63.8 241,80 243,83 Z M110.5,29 C118.5,29 125,22.5 125,14.5 C125,6.5 118.5,0 110.5,0 C102.5,0 96,6.5 96,14.5 C96,22.5 102.5,29 110.5,29 Z" id="SVGID_1_"></path>
                    </g>
                </g>
                <path d="M58.7,161.3 L63,167.2 L84.5,178 L91.2,178 L64.9,164.8 L60.1,158.3 C44.7,137.2 31.7,118.8 21.2,103.3 L74.1,70.3 L111.5,130.9 L94.4,178 L97.7,178 L114.2,132.6 L186.5,155.4 C184.4,163.1 181.8,170.6 178.7,178 L183,178 C187.8,166.2 191.4,154 193.7,141.3 L193.8,141 C201.1,121.3 216.1,99.8 238.9,76.4 L240.5,74.8 C246.2,69 253.8,63.3 264.2,56.7 C267,54.9 269.8,53.2 273.5,51 L283.6,45 C284.4,44.5 285.2,44 286,43.6 L288.6,42 C291.1,40.5 294.2,38.7 298,36.6 C301.2,42.1 304.4,47.5 307.6,52.9 C307.2,53 306.9,53.1 306.5,53.3 L293.8,57.4 L292.3,57.9 C284.3,60.6 279,62.7 274.7,65.1 C267.1,69.4 260.3,73.8 252,80.2 C239.7,89.8 228.5,100.9 218.9,113.9 C209.1,127.2 201.3,146 197.1,164.2 C195.9,169.2 195.1,173.9 194.7,178 L198.7,178 C199.1,174.2 199.9,169.8 201,165.1 C205.1,147.3 212.7,129 222.2,116.2 C231.6,103.5 242.6,92.6 254.6,83.3 C262.7,77 269.4,72.7 276.8,68.5 L277.5,68.1 C281.6,65.9 286.7,63.9 294.4,61.3 L305.8,57.7 C307.3,57.2 308.6,56.8 309.9,56.4 C311.7,59.5 313.6,62.5 315.5,65.5 L317.3,68.4 C317.8,69.2 318.2,69.9 318.7,70.7 C316,72.2 313.5,73.7 311.3,75 L300.8,81.5 C282,93.2 270.3,102.3 258.6,115.8 C242.4,134.5 232.7,153.6 229.5,170.1 C228.9,172.9 228.6,175.6 228.5,178.1 L231.5,178.1 C231.6,175.8 231.9,173.4 232.5,170.7 C233.6,164.9 235.6,158.8 238.4,152.4 C246.5,157.2 252.6,161.8 256.6,166.3 C259.8,169.9 262.5,173.8 264.7,178 L268.1,178 C265.7,173 262.6,168.4 258.9,164.2 C254.6,159.4 248.2,154.5 239.7,149.6 C244.6,139.3 251.7,128.4 261,117.7 C264,114.2 267.1,111 270.3,107.9 C279.5,115.6 289.4,127.1 300,142.3 C307.8,153.5 313.6,165.4 317.3,178 L320.4,178 C316.7,164.8 310.7,152.3 302.5,140.6 L301.3,138.9 C291.1,124.5 281.5,113.5 272.5,105.8 C279.6,99.3 287.5,93.5 297.5,87.1 L298.4,88.6 C304.3,98 312.6,110.3 323.2,125.5 L325,128 C331.4,137.1 337.5,145.5 343.4,153.1 L343.4,148.1 C338.1,141 332.5,133.3 326.6,125 L323.4,120.4 C313.6,106.3 305.9,94.8 300.4,86 L300.1,85.6 C300.6,85.3 301.1,85 301.6,84.7 L303.5,83.5 L312.7,77.9 C315,76.5 317.6,75 320.5,73.3 C329.3,87.4 337,98.9 343.4,107.7 L343.4,100.8 C337.8,92.8 331.3,83 324,71.3 C329.5,68.3 336,64.9 343.4,61.2 L343.4,57.8 C335.3,61.8 328.3,65.5 322.4,68.7 C321.3,67 320.2,65.2 319.1,63.4 C317.4,60.6 315.7,57.8 314,55.1 C314.9,54.8 315.8,54.5 316.7,54.1 L317.3,53.9 C327.7,50.1 336.3,46.1 343.4,41.3 L343.4,36.4 C336.4,41.6 327.6,45.9 316.8,49.8 L316,50.1 C314.7,50.6 313.3,51 311.9,51.5 C308.5,45.9 305.2,40.3 301.9,34.6 C311.9,29.3 325.8,22.4 343.4,14 L343.4,9.7 C324.9,18.5 310.4,25.7 299.9,31.2 C299.2,30 298.5,28.8 297.9,27.6 L334.9,6 L328.9,6 L296,25.1 C292.4,18.8 288.9,12.4 285.3,6 L280.7,6 C284.6,13.1 288.5,20.1 292.5,27.1 L281.7,33.4 C258.7,46.8 243.3,55.7 235.7,60.2 C225.9,66 217.3,66.6 209.9,63.2 C204.3,60.6 199.7,55.8 196.6,50.4 L196.1,49.4 C194.7,46.8 193.3,44 191.3,40 L188.2,33.5 L187.2,31.5 C184.5,26.1 182.4,22.1 179.9,18.4 L179.6,18 C177.4,14.7 174.4,10.7 170.7,6.1 L166.8,6.1 C171.2,11.5 174.6,16 177.1,19.7 L177.6,20.5 C180.1,24.4 182.4,28.7 185.4,34.9 L189,42.4 C191,46.5 192.4,49.2 194,52 C197.4,57.9 202.4,63.2 208.7,66.1 C217,70 226.7,69.3 237.3,63 L245.6,58.1 C254.6,52.8 267.9,45.1 285.6,34.8 L294.1,29.9 C294.8,31.1 295.4,32.2 296.1,33.3 C292.8,35.1 289.9,36.7 287.6,38.2 L284.1,40.3 C283.2,40.8 282.3,41.4 281.2,42 L271,47.9 C267.6,50 264.8,51.7 262.2,53.4 L260.7,54.4 C250.8,60.7 243.5,66.3 237.8,72.1 C218.7,91.4 204.8,109.6 196,126.7 C197.3,114.9 197.5,102.7 196.7,90.1 C194.6,57.8 183.8,29.8 164.1,6.1 L158.8,6.1 C159.1,6.4 159.3,6.7 159.6,7 L133.6,23.2 L123.2,6 L119.7,6 L130.9,24.6 L72.1,61.2 L46.2,19.2 L67.3,6 L61.4,6 L7,40 L7,43.7 L43.6,20.9 L72.6,67.9 L19.6,101 C14.9,93.8 10.7,87.4 7,81.6 L7,87.2 C10,91.9 13.4,97 17,102.4 L7,108.7 L7,112.2 L18.7,104.9 C29.5,120.8 42.8,139.6 58.7,161.3 Z M127.8,133.8 L114.2,129.5 L102.2,110.1 L127.6,97 L127.7,97.1 C132,101.7 135.7,106.5 139,111.5 C141.9,115.9 138.5,123.2 128.3,133.2 L127.8,133.8 Z M192.6,90.3 C193.7,107.7 192.8,124.4 189.9,140.3 L189.9,140.4 L189.9,140.4 C189.2,144.5 188.3,148.5 187.3,152.5 L131.1,134.8 C141.8,124 145.5,115.7 141.6,109.8 C138.4,104.9 134.7,100.1 130.5,95.5 L189,65.3 C190.9,73.3 192.1,81.6 192.6,90.3 Z M161.4,9.2 C174.5,25.1 183.5,43 188.4,62.8 L188.1,62.3 L164.4,74.5 L135,25.6 L161.4,9.2 Z M132.5,27.2 L161.9,75.9 L100.8,107.5 L101.1,108.1 L73.6,63.7 L132.5,27.2 Z" id="形状" fill="#FFFFFF" fill-rule="nonzero"></path>
            </g>
        </g>
    </g>
</svg>