<?xml version="1.0" encoding="UTF-8"?>
<svg width="89px" height="100px" viewBox="0 0 89 100" version="1.1" xmlns="http://www.w3.org/2000/svg" xmlns:xlink="http://www.w3.org/1999/xlink">
    <title>EmptyPage/04 NoRecord</title>
    <g id="页面-3" stroke="none" stroke-width="1" fill="none" fill-rule="evenodd">
        <g id="编组" transform="translate(-26.000000, -10.000000)" fill="#A1A7B3">
            <g transform="translate(25.110000, 10.000000)">
                <g id="board" transform="translate(0.699850, 0.000000)">
                    <ellipse id="椭圆形" opacity="0.15" cx="33.6169259" cy="97.7931677" rx="33.3235423" ry="2.09054905"></ellipse>
                    <path d="M15.6566517,7.68481948 C14.8320038,8.84653907 14.3086539,10.237133 14.2005157,11.7426876 L9.37355468,11.7427205 C8.86071884,11.7427205 8.43804752,12.1287607 8.38028241,12.6260993 L8.37355468,12.7427205 L8.37355468,80.4445085 C8.37355468,80.9573443 8.75959487,81.3800156 9.25693355,81.4377807 L9.37355468,81.4445085 L55.9597787,81.4445085 C56.4726145,81.4445085 56.8952858,81.0584683 56.9530509,80.5611296 L56.9597787,80.4445085 L56.9591918,59.4642467 C58.2354881,58.6963697 59.5848521,57.8715818 60.9689698,57.0202918 C61.872061,56.4648531 62.7610143,55.9245256 63.6374278,55.3893306 L63.6365385,89.1456801 C63.6365385,91.3548191 61.8456775,93.1456801 59.6365385,93.1456801 L5.41431625,93.1456801 C3.20517725,93.1456801 1.41431625,91.3548191 1.41431625,89.1456801 L1.41431625,11.6865305 C1.41431625,9.47739154 3.20517725,7.68653054 5.41431625,7.68653054 L15.6566517,7.68481948 Z M49.6766817,7.68481948 L59.6365385,7.68653054 C61.8456775,7.68653054 63.6365385,9.47739154 63.6365385,11.6865305 L63.6371125,41.7414945 C61.4081436,43.9658433 59.103154,46.6784541 56.9601952,49.4365519 L56.9597787,12.7427205 C56.9597787,12.1904357 56.5120634,11.7427205 55.9597787,11.7427205 L51.1328176,11.7426876 C51.0246794,10.237133 50.5013296,8.84653907 49.6766817,7.68481948 Z" id="形状结合" opacity="0.600000024"></path>
                    <path d="M1.42842215,88.034569 C1.42842215,90.243708 3.21928315,92.034569 5.42842215,92.034569 L5.42842215,92.034569 L59.6506444,92.034569 C61.8597834,92.034569 63.6506444,90.243708 63.6506444,88.034569 L63.6506444,88.034569 L63.6506444,89.1456801 C63.6506444,91.3548191 61.8597834,93.1456801 59.6506444,93.1456801 L5.42842215,93.1456801 C3.21928315,93.1456801 1.42842215,91.3548191 1.42842215,89.1456801 Z" id="bolder" opacity="0.300000012"></path>
                    <path d="M56.9591918,59.4642467 L56.9597787,80.4445085 C56.9597787,80.9967932 56.5120634,81.4445085 55.9597787,81.4445085 L9.37355468,81.4445085 C8.86071884,81.4445085 8.43804752,81.0584683 8.38028241,80.5611296 L8.37409683,80.4451067 C8.39228046,80.997099 8.85449933,81.4298363 9.40649115,81.4116402 C36.410719,80.5220714 50.9667056,79.0071163 53.074451,76.866775 C54.0969746,75.8284382 54.9268724,70.3057364 55.5641443,60.2986697 C56.0174001,60.0290696 56.4832148,59.7506158 56.9591918,59.4642467 Z M55.9597787,11.7427205 C56.5120634,11.7427205 56.9597787,12.1904357 56.9597787,12.7427205 L56.9601952,49.4365519 C56.6579918,49.8255032 56.3590107,50.215359 56.0639196,50.6048777 C56.4662846,41.0062372 56.7563626,28.7933575 56.9341716,13.9668335 L56.9483896,12.754852 L56.9484554,12.7433799 C56.9484554,12.2305185 56.562396,11.8078261 56.0650326,11.750098 L55.9484056,11.7433799 L55.9597787,11.7427205 Z" id="形状结合" opacity="0.800000012"></path>
                    <path d="M14.2004684,11.7433459 L14.1902746,11.909269 L14.1902746,11.909269 L14.1834578,12.076084 L14.1804818,12.2778365 L51.153554,12.2779649 C51.1524982,12.0982019 51.1455335,11.9198392 51.1328445,11.7430614 L55.9484056,11.7433799 C56.5007179,11.7433301 56.9484554,12.1910676 56.9484554,12.7433799 L56.9483896,12.754852 C56.7720078,28.1295003 56.4771782,40.7466641 56.063901,50.6063433 C52.4333112,55.3973618 49.392156,60.1376676 48.1823636,62.5154382 L48.1823636,62.5154382 L33.652283,76.54691 L31.2131832,79.5271207 C31.1615524,79.5902057 31.1586794,79.6800882 31.2061761,79.7463417 C31.2513374,79.8093376 31.3378528,79.8260652 31.4032416,79.7844441 L31.4032416,79.7844441 L34.6497457,77.7179883 L49.0240891,63.8205749 C50.4317295,63.253589 52.7668367,61.9562089 55.563735,60.2980309 C54.9268558,70.305847 54.0969644,75.8284486 53.074451,76.866775 C50.9667056,79.0071163 36.410719,80.5220714 9.40649115,81.4116402 C8.85449933,81.4298363 8.39228046,80.997099 8.37409683,80.4451067 L8.37355468,12.7433799 C8.37355468,12.1910951 8.82126993,11.7433799 9.37355468,11.7433799 L14.2004684,11.7433459 Z M51.1542828,12.8843279 L14.1802255,12.8843279 L14.1802255,13.6297163 C14.1802255,13.9328527 14.401392,14.1843328 14.6911658,14.2315975 L14.7900888,14.2395796 L50.5444195,14.2395796 C50.8475559,14.2395796 51.0990361,14.0184131 51.1463007,13.7286393 L51.1542828,13.6297163 L51.1542828,12.8843279 Z" id="形状结合" opacity="0.200000003"></path>
                    <path d="M14.2004684,11.7433459 L14.1902746,11.909269 L14.1902746,11.909269 L14.1834578,12.076084 L14.1804818,12.2778365 L51.153554,12.2779649 C51.1524982,12.0982019 51.1455335,11.9198392 51.1328445,11.7430614 L55.9484056,11.7433799 C56.5007179,11.7433301 56.9484554,12.1910676 56.9484554,12.7433799 L56.9483896,12.754852 C56.7720078,28.1295003 56.4771782,40.7466641 56.063901,50.6063433 C52.4333112,55.3973618 49.392156,60.1376676 48.1823636,62.5154382 L48.1823636,62.5154382 L33.652283,76.54691 L31.2131832,79.5271207 C31.1615524,79.5902057 31.1586794,79.6800882 31.2061761,79.7463417 C31.2513374,79.8093376 31.3378528,79.8260652 31.4032416,79.7844441 L31.4032416,79.7844441 L34.6497457,77.7179883 L49.0240891,63.8205749 C50.4317295,63.253589 52.7668367,61.9562089 55.563735,60.2980309 C54.9268558,70.305847 54.0969644,75.8284486 53.074451,76.866775 C50.9667056,79.0071163 36.410719,80.5220714 9.40649115,81.4116402 C8.85449933,81.4298363 8.39228046,80.997099 8.37409683,80.4451067 L8.37355468,12.7433799 C8.37355468,12.1910951 8.82126993,11.7433799 9.37355468,11.7433799 L14.2004684,11.7433459 Z M51.1542828,12.8843279 L14.1802255,12.8843279 L14.1802255,13.6297163 C14.1802255,13.9328527 14.401392,14.1843328 14.6911658,14.2315975 L14.7900888,14.2395796 L50.5444195,14.2395796 C50.8475559,14.2395796 51.0990361,14.0184131 51.1463007,13.7286393 L51.1542828,13.6297163 L51.1542828,12.8843279 Z" id="形状结合" opacity="0.1"></path>
                    <path d="M51.1542828,12.8843279 L51.1542828,13.6297163 C51.1542828,13.9665345 50.8812377,14.2395796 50.5444195,14.2395796 L14.7900888,14.2395796 C14.4532706,14.2395796 14.1802255,13.9665345 14.1802255,13.6297163 L14.1802255,12.8843279 L51.1542828,12.8843279 Z M32.6666667,0.409947594 C35.3390122,0.409947594 36.4844182,2.04054424 37.559354,4.09230166 L37.6666667,4.29883648 L43.1264189,4.29883648 C47.5437009,4.29883648 51.1276453,7.86677865 51.153554,12.2779649 L14.1804818,12.2778365 L14.1834578,12.076084 C14.315557,7.75842984 17.85722,4.29883648 22.2069144,4.29883648 L27.6666667,4.29883648 C28.6150174,2.15106246 29.9052429,0.409947594 32.6666667,0.409947594 Z M32.6666667,2.78115151 C31.3120837,2.78115151 30.2139772,3.87925801 30.2139772,5.23384102 C30.2139772,6.58842404 31.3120837,7.68653054 32.6666667,7.68653054 C34.0212497,7.68653054 35.1193562,6.58842404 35.1193562,5.23384102 C35.1193562,3.87925801 34.0212497,2.78115151 32.6666667,2.78115151 Z" id="形状结合" opacity="0.600000024"></path>
                </g>
                <path d="M97.6761419,40.2903995 C99.7517293,42.2127197 89.9389235,49.9460736 81.8339935,53.1136911 C73.7290635,56.2813086 66.9727037,56.5237494 59.1503546,57.1521926 C53.2024735,57.6300421 47.8343942,58.0022314 45.4201241,57.7884268 L26.3031966,63.6452975 L22.472389,64.0126411 C22.3952315,64.0200399 22.32574,63.9658583 22.3141005,63.8892258 C22.3018591,63.8086304 22.3452247,63.7298488 22.4198681,63.6970795 L25.9461093,62.1490205 L45.2626608,56.2434061 C49.0125662,53.5156053 60.9326362,46.9400314 69.6983687,44.3686601 C71.5385763,43.828847 73.5142111,43.2968003 75.534509,42.7957409 L76.344795,42.5970249 C76.7509139,42.4985483 77.1583353,42.401435 77.566333,42.3058708 L78.3828816,42.1168629 C78.5190294,42.0857242 78.6551875,42.0547713 78.7913289,42.0240113 L79.6077626,41.8418191 C88.037734,39.9842067 96.1969822,38.9204761 97.6761419,40.2903995 Z M73.8198845,49.3904138 C72.844215,49.2292085 71.2184974,48.6857103 71.4069642,49.2618687 C71.595431,49.838027 73.5434796,50.6831254 77.9582298,50.9219131 C82.1364755,51.1479085 80.9884089,50.5768282 79.1725031,50.2294564 L78.9643262,50.1911419 L78.9643262,50.1911419 L78.8585674,50.1728042 C76.8757611,49.8359846 74.795554,49.5516191 73.8198845,49.3904138 Z M77.6121891,47.055513 C76.7867087,46.8700867 75.9819316,46.7044908 76.1176277,47.1193248 C76.3060945,47.6954831 78.2541431,48.5405815 82.6688933,48.7793692 C87.0836434,49.0181568 85.552037,48.3670799 83.5692308,48.0302603 C81.5864245,47.6934407 79.5062174,47.4090752 78.5305479,47.2478699 C78.335414,47.2156288 78.1142782,47.1680961 77.8868543,47.1172872 Z M83.0030573,44.6437142 C82.2282905,44.4723045 81.5175691,44.346363 81.6457265,44.7381507 C81.8341933,45.314309 83.7822419,46.1594075 88.1969921,46.3981951 C92.3752378,46.6241905 91.2271711,46.0531102 89.4112654,45.7057385 L89.2030885,45.6674239 L89.2030885,45.6674239 L89.0973296,45.6490862 C87.1145234,45.3122666 85.0343163,45.0279011 84.0586468,44.8666958 C83.8635129,44.8344547 83.6423771,44.786922 83.4149532,44.7361131 Z" id="pencil" opacity="0.5" transform="translate(60.134884, 51.841162) rotate(-27.000000) translate(-60.134884, -51.841162) "></path>
            </g>
        </g>
    </g>
</svg>